<?xml version="1.0" encoding="utf-8"?>
<!-- Generator: Adobe Illustrator 23.0.0, SVG Export Plug-In . SVG Version: 6.00 Build 0)  -->
<svg version="1.1" id="placeReflection" xmlns="http://www.w3.org/2000/svg" xmlns:xlink="http://www.w3.org/1999/xlink" x="0px"
	 y="0px" viewBox="0 0 512 512" style="enable-background:new 0 0 512 512;" xml:space="preserve">
<style type="text/css">
	.st0{fill-rule:evenodd;clip-rule:evenodd;fill:#DB9456;stroke:#3F3F3F;stroke-width:16;stroke-miterlimit:10;}
	.st1{fill-rule:evenodd;clip-rule:evenodd;fill:#BFBFBF;}
	.st2{fill:#3F3F3F;}
</style>
<path class="st0" d="M416.83,95.03c88.86,88.86,88.9,232.97,0.07,321.88c-88.82,88.9-232.87,88.93-321.73,0.07
	C6.3,328.11,6.27,184,95.1,95.1C183.92,6.19,327.97,6.16,416.83,95.03z"/>
<path class="st1" d="M211.35,140.62c19.53,19.53,19.54,51.2,0.02,70.74s-51.18,19.55-70.71,0.02s-19.54-51.2-0.02-70.74
	C160.16,121.1,191.82,121.09,211.35,140.62z"/>
<path class="st2" d="M406.43,363.67l-82.37-81.94l36.58-36.75l-154.22-38.8L246,360.16l36.58-36.76l82.37,81.94L406.43,363.67z"/>
</svg>
